<svg width="25" height="25" viewBox="0 0 25 25" fill="none" xmlns="http://www.w3.org/2000/svg">
<g id="Iconly/Curved/Buy">
<g id="Buy">
<path id="Stroke 1" d="M5.74283 7.8707C9.63333 6.61455 14.1915 6.32642 16.2191 6.3707C18.2467 6.41497 19.1022 7.137 19.7191 8.3707C20.7191 10.3707 20.5081 15.3588 18.7191 16.9578C16.9311 18.5568 9.5492 18.7088 7.0892 16.9578C4.4902 15.1068 5.84806 10.0627 5.76306 6.6137C5.81406 4.6837 3.71906 4.3707 3.71906 4.3707" stroke="#A3A9BA" stroke-width="1.5" stroke-linecap="round" stroke-linejoin="round"/>
<path id="Stroke 3" d="M13.2191 11.3707H15.9921" stroke="#A3A9BA" stroke-width="1.5" stroke-linecap="round" stroke-linejoin="round"/>
<path id="Stroke 5" fill-rule="evenodd" clip-rule="evenodd" d="M7.48299 20.9981C7.78299 20.9981 8.02699 21.2421 8.02699 21.5421C8.02699 21.8431 7.78299 22.0871 7.48299 22.0871C7.18199 22.0871 6.93799 21.8431 6.93799 21.5421C6.93799 21.2421 7.18199 20.9981 7.48299 20.9981Z" fill="#A3A9BA" stroke="#A3A9BA" stroke-width="1.5" stroke-linecap="round" stroke-linejoin="round"/>
<path id="Stroke 7" fill-rule="evenodd" clip-rule="evenodd" d="M17.8145 20.9981C18.1155 20.9981 18.3595 21.2421 18.3595 21.5421C18.3595 21.8431 18.1155 22.0871 17.8145 22.0871C17.5145 22.0871 17.2705 21.8431 17.2705 21.5421C17.2705 21.2421 17.5145 20.9981 17.8145 20.9981Z" fill="#A3A9BA" stroke="#A3A9BA" stroke-width="1.5" stroke-linecap="round" stroke-linejoin="round"/>
</g>
</g>
</svg>
