<svg width="25" height="25" viewBox="0 0 25 25" fill="none" xmlns="http://www.w3.org/2000/svg">
<g id="Iconly/Curved/Category">
<g id="Category">
<path id="Stroke 1" fill-rule="evenodd" clip-rule="evenodd" d="M21.2194 7.54441C21.2194 9.57301 19.5742 11.2182 17.5456 11.2182C15.517 11.2182 13.8727 9.57301 13.8727 7.54441C13.8727 5.51581 15.517 3.87061 17.5456 3.87061C19.5742 3.87061 21.2194 5.51581 21.2194 7.54441Z" stroke="#A3A9BA" stroke-width="1.5" stroke-linecap="round" stroke-linejoin="round"/>
<path id="Stroke 3" fill-rule="evenodd" clip-rule="evenodd" d="M10.5657 7.54441C10.5657 9.57301 8.92139 11.2182 6.89189 11.2182C4.86419 11.2182 3.21899 9.57301 3.21899 7.54441C3.21899 5.51581 4.86419 3.87061 6.89189 3.87061C8.92139 3.87061 10.5657 5.51581 10.5657 7.54441Z" stroke="#A3A9BA" stroke-width="1.5" stroke-linecap="round" stroke-linejoin="round"/>
<path id="Stroke 5" fill-rule="evenodd" clip-rule="evenodd" d="M21.2194 18.1325C21.2194 20.1611 19.5742 21.8054 17.5456 21.8054C15.517 21.8054 13.8727 20.1611 13.8727 18.1325C13.8727 16.1039 15.517 14.4587 17.5456 14.4587C19.5742 14.4587 21.2194 16.1039 21.2194 18.1325Z" stroke="#A3A9BA" stroke-width="1.5" stroke-linecap="round" stroke-linejoin="round"/>
<path id="Stroke 7" fill-rule="evenodd" clip-rule="evenodd" d="M10.5657 18.1325C10.5657 20.1611 8.92139 21.8054 6.89189 21.8054C4.86419 21.8054 3.21899 20.1611 3.21899 18.1325C3.21899 16.1039 4.86419 14.4587 6.89189 14.4587C8.92139 14.4587 10.5657 16.1039 10.5657 18.1325Z" stroke="#A3A9BA" stroke-width="1.5" stroke-linecap="round" stroke-linejoin="round"/>
</g>
</g>
</svg>
