<svg width="25" height="25" viewBox="0 0 25 25" fill="none" xmlns="http://www.w3.org/2000/svg">
<g id="Iconly/Curved/Filter">
<g id="Filter">
<path id="Stroke 1" d="M11.3627 18.0596H4.89014" stroke="#FF7269" stroke-width="1.5" stroke-linecap="round" stroke-linejoin="round"/>
<path id="Stroke 3" fill-rule="evenodd" clip-rule="evenodd" d="M15.424 18.0605C15.424 20.1023 16.1048 20.7823 18.1457 20.7823C20.1866 20.7823 20.8675 20.1023 20.8675 18.0605C20.8675 16.0187 20.1866 15.3387 18.1457 15.3387C16.1048 15.3387 15.424 16.0187 15.424 18.0605Z" stroke="#FF7269" stroke-width="1.5" stroke-linecap="round" stroke-linejoin="round"/>
<path id="Stroke 5" d="M14.3955 7.57093H20.8672" stroke="#FF7269" stroke-width="1.5" stroke-linecap="round" stroke-linejoin="round"/>
<path id="Stroke 7" fill-rule="evenodd" clip-rule="evenodd" d="M10.3342 7.5696C10.3342 5.5287 9.65335 4.84781 7.61245 4.84781C5.57067 4.84781 4.88977 5.5287 4.88977 7.5696C4.88977 9.61139 5.57067 10.2914 7.61245 10.2914C9.65335 10.2914 10.3342 9.61139 10.3342 7.5696Z" stroke="#FF7269" stroke-width="1.5" stroke-linecap="round" stroke-linejoin="round"/>
</g>
</g>
</svg>
